<svg xmlns="http://www.w3.org/2000/svg" viewBox="0 0 16 16"><rect x="0" fill="none" width="16" height="16"/><g><path d="M11.86 9h2.05c-0.09 0.55-0.28 1.07-0.52 1.56l-1.54-1.54C11.85 9.01 11.86 9.01 11.86 9zM12.22 12.22l1.43 1.43 -1.41 1.41 -1.67-1.67C9.79 13.78 8.92 14 8 14c-1.65 0-3.14-0.69-4.22-1.78L2 14V9h0.09 2.05 2.03L4.15 6.98c0 0.01-0.01 0.01-0.01 0.02H2.09c0.09-0.56 0.28-1.08 0.52-1.56L0.93 3.76l1.41-1.41 1.43 1.43 1.41 1.41 5.63 5.63L12.22 12.22zM9.02 11.85L6.59 9.41l-1.4 1.4C5.9 11.54 6.89 12 8 12 8.36 12 8.69 11.94 9.02 11.85zM12.22 3.78C11.14 2.69 9.65 2 8 2 7.08 2 6.21 2.23 5.43 2.6l1.54 1.54C7.3 4.06 7.64 4 8 4c1.11 0 2.1 0.46 2.82 1.18l-1.4 1.4L9.83 7h2.03 2.05H14V2L12.22 3.78z"/></g></svg>