<svg xmlns="http://www.w3.org/2000/svg" viewBox="0 0 16 16"><rect x="0" fill="none" width="16" height="16"/><g><path d="M11.9,9h2c-0.1,0.6-0.3,1.1-0.5,1.6L11.9,9C11.9,9,11.9,9,11.9,9z M12.2,3.8C11.1,2.7,9.7,2,8,2C7.1,2,6.2,2.2,5.4,2.6
	L7,4.1C7.3,4.1,7.6,4,8,4c1.1,0,2.1,0.5,2.8,1.2L9.4,6.6L9.8,7h2h2H14V2L12.2,3.8z M12.2,12.2l1.4,1.4l-1.4,1.4l-1.7-1.7
	C9.8,13.8,8.9,14,8,14c-1.7,0-3.1-0.7-4.2-1.8L2,14V9h0.1h2h2l-2-2c0,0,0,0,0,0h-2c0.1-0.6,0.3-1.1,0.5-1.6L0.9,3.8l1.4-1.4l1.4,1.4
	l1.4,1.4l5.6,5.6L12.2,12.2z M9,11.8L6.6,9.4l-1.4,1.4C5.9,11.5,6.9,12,8,12C8.4,12,8.7,11.9,9,11.8z"/></g></svg>
