<svg xmlns="http://www.w3.org/2000/svg" viewBox="0 0 24 24"><rect x="0" fill="none" width="24" height="24"/><g><path d="M21.82 12.34c-0.932-1.299-2.241-2.28-3.75-2.81C18.663 8.82 18.992 7.926 19 7c-0.014-2.209-1.816-3.988-4.026-3.974 -1.274 0.008-2.468 0.623-3.214 1.654 0.593 0.309 1.131 0.714 1.59 1.2 0.619-0.915 1.862-1.156 2.777-0.537s1.156 1.862 0.537 2.777C16.291 8.672 15.667 9.002 15 9h-0.09c0.055 0.331 0.085 0.665 0.09 1 0.001 0.335-0.029 0.67-0.09 1H15c1.918-0.039 3.752 0.783 5 2.24V15h-2.36c0.07 0.12 0.16 0.24 0.23 0.36L18 15.59V17h4v-4.4L21.82 12.34zM15.82 15.34c-0.932-1.299-2.241-2.28-3.75-2.81 0.593-0.71 0.922-1.604 0.93-2.53 0-2.209-1.791-4-4-4s-4 1.791-4 4c0.008 0.926 0.337 1.82 0.93 2.53 -1.508 0.526-2.817 1.503-3.75 2.8L2 15.59V20h14v-4.4L15.82 15.34zM9 8c1.105 0 2 0.895 2 2s-0.895 2-2 2 -2-0.895-2-2S7.895 8 9 8zM14 18H4v-1.76c1.248-1.457 3.082-2.279 5-2.24 1.918-0.039 3.752 0.783 5 2.24V18z"/></g></svg>