<svg xmlns="http://www.w3.org/2000/svg" viewBox="0 0 24 24"><rect x="0" fill="none" width="24" height="24"/><g><path d="M12,2C6.48584,2,2,6.48584,2,12c0,5.51367,4.48584,10,10,10c5.51367,0,10-4.48633,10-10C22,6.48584,17.51367,2,12,2z M12,20
	c-4.41113,0-8-3.58887-8-8s3.58887-8,8-8s8,3.58887,8,8S16.41113,20,12,20z M13.5,12c0,0.82843-0.67157,1.5-1.5,1.5
	s-1.5-0.67157-1.5-1.5s0.67157-1.5,1.5-1.5S13.5,11.17157,13.5,12z M9,12c0,0.82843-0.67157,1.5-1.5,1.5S6,12.82843,6,12
	s0.67157-1.5,1.5-1.5S9,11.17157,9,12z M18,12c0,0.82843-0.67157,1.5-1.5,1.5S15,12.82843,15,12s0.67157-1.5,1.5-1.5
	S18,11.17157,18,12z"/></g></svg>
