<svg xmlns="http://www.w3.org/2000/svg" viewBox="0 0 24 24"><rect x="0" fill="none" width="24" height="24"/><g id="hide_keyboard" data-name="hide keyboard"><path d="M20,16H4a2,2,0,0,1-2-2V4A2,2,0,0,1,4,2H20a2,2,0,0,1,2,2V14A2,2,0,0,1,20,16ZM4,4V14H20V4Z"/><rect x="15" y="6" width="2" height="2"/><rect x="7" y="6" width="2" height="2"/><rect x="7" y="10" width="7" height="2"/><rect x="16" y="10" width="2" height="2"/><rect x="11" y="6" width="2" height="2"/><polygon points="12 22 8 18 16 18 12 22"/></g></svg>