<svg xmlns="http://www.w3.org/2000/svg" viewBox="0 0 24 24"><rect x="0" fill="none" width="24" height="24"/><path d="M21.19 9.88l-4.24 4.24 -1.41-1.41 4.24-4.24 -4.24-4.24 -4.24 4.24L9.88 7.05l4.24-4.24c0.78-0.78 2.05-0.78 2.83 0l4.24 4.24C21.97 7.83 21.97 9.1 21.19 9.88zM8.46 19.78l-4.24-4.24 4.24-4.24L7.05 9.88l-4.24 4.24c-0.78 0.78-0.78 2.05 0 2.83l4.24 4.24c0.78 0.78 2.05 0.78 2.83 0l4.24-4.24 -1.41-1.41L8.46 19.78zM9.88 15.54l5.66-5.66c0.39-0.39 0.39-1.03 0-1.41s-1.03-0.39-1.41 0l-5.66 5.66c-0.39 0.39-0.39 1.03 0 1.41S9.49 15.92 9.88 15.54z"/></svg>