<svg xmlns="http://www.w3.org/2000/svg" viewBox="0 0 24 24"><rect x="0" fill="none" width="24" height="24"/><g><path d="M15.43,12.66a3.47,3.47,0,0,0-4.09-4.09Z"/><path d="M9.64,6.87A7.77,7.77,0,0,1,12,6.5,8,8,0,0,1,19.59,12a7.74,7.74,0,0,1-1.82,3l1.43,1.43a10,10,0,0,0,2.4-4.15l.08-.28-.08-.28A10,10,0,0,0,8.08,5.31Z"/><path d="M19.61,19.59,3,3,1.6,4.41,4.8,7.6a9.93,9.93,0,0,0-2.4,4.12L2.32,12l.08.28A10,10,0,0,0,12,19.5a9.85,9.85,0,0,0,3.89-.81L18.2,21ZM12,17.5A8,8,0,0,1,4.41,12a7.75,7.75,0,0,1,1.8-3l2.35,2.35A4.34,4.34,0,0,0,8.5,12,3.5,3.5,0,0,0,12,15.5a4.34,4.34,0,0,0,.63-.06l1.69,1.69A7.51,7.51,0,0,1,12,17.5Z"/></g></svg>